<?xml version="1.0" encoding="utf-8"?>
<!-- Generator: Adobe Illustrator 19.0.0, SVG Export Plug-In . SVG Version: 6.00 Build 0)  -->
<svg version="1.1" id="Layer_1" xmlns="http://www.w3.org/2000/svg" xmlns:xlink="http://www.w3.org/1999/xlink" x="0px" y="0px"
	 viewBox="0 0 179.7 170" style="enable-background:new 0 0 179.7 170;" xml:space="preserve">
<style type="text/css">
	.st0{fill:#D7E0E5;}
	.st1{font-family:'Roboto-Regular';}
	.st2{font-size:22px;}
</style>
<g id="XMLID_1517_">
	<g id="XMLID_1518_">
		<path id="XMLID_2808_" class="st0" d="M70.8,127.4c1.2,4.2,4.9,6.9,8.9,6.9c0.9,0,1.7-0.1,2.6-0.4c4.9-1.5,7.7-6.8,6.3-11.9
			L77.2,81.8c-0.7-2.4-2.2-4.4-4.4-5.7c-0.6,0.4-1.2,0.8-1.8,1.1c-6.1,3.5-14.2,5.6-25.6,6.7c-0.2,0-0.5,0-0.7,0c-3.9,0-7-3-7.4-7
			c-0.2-2,0.4-4,1.7-5.6c1.3-1.6,3.1-2.6,5-2.7c6.9-0.7,12.7-1.8,16.8-3.4c0.3-0.1,0.6-0.3,0.9-0.4l2.8-14.3
			c1.1,1.5,2.1,3.1,2.9,4.6c0.3,0.7,0.6,1.4,0.8,2c0.3,1,0.5,1.9,0.5,2.6c0,0.2,0,0.4,0,0.6l0,0c-0.1,0.7-0.3,1.3-0.8,2.1
			c-0.8,1.1-2.7,2.7-6.5,4.2c-3.8,1.5-9.4,2.8-17.1,3.5c-3.3,0.3-5.7,3.3-5.4,6.7c0.3,3.2,2.9,5.6,5.9,5.6c0.2,0,0.4,0,0.6,0
			c11.3-1.1,19.2-3.2,25-6.5c2.9-1.7,5.3-3.7,7-6.1c1.8-2.4,2.8-5.2,3.1-7.9c0,0,0,0,0,0c0.1-0.8,0.1-1.5,0.1-2.2
			c0-1.2-0.1-2.4-0.3-3.5c-0.5-2.6-1.4-5-2.5-7.2c-2.4-4.7-5.6-8.5-8.2-11.3c-1.6-1.7-3-3-3.9-3.8c-0.8-1-1.9-1.8-3.3-2.1L61,31.5
			c-3.2,2.9-7.4,4.7-11.9,4.7c-1.2,0-2.4-0.1-3.7-0.4c-4.8-1-8.9-3.9-11.5-8.1c-0.4-0.6-0.8-1.3-1.1-2c-0.1,0-0.2,0-0.3,0
			c-2.6,0.1-10.3,1-17.8,8C10.8,37.5,7,43,4.3,50.6C1.6,58.3,0,68,0,80.4c0,2,0,4,0.1,6.1c0.1,3.3,2.8,5.9,5.9,5.9
			c0.1,0,0.2,0,0.3,0c3.3-0.1,5.8-3,5.7-6.4c-0.1-1.9-0.1-3.8-0.1-5.6c0-11.3,1.5-19.6,3.6-25.5c2.7-7.6,6.3-11.5,9.4-13.7
			c-3,12.6-7.5,32.9-7.5,40.9c0,0.4,0,0.7,0.1,1.1v77.3c0,5.3,4.1,9.5,9.2,9.5c5.1,0,9.2-4.3,9.2-9.5v-61c2.4,3.5,6.8,5,10.8,3.5
			l15.5-5.9L70.8,127.4z"/>
		<rect id="XMLID_2806_" x="52.1" y="138.5" class="st0" width="54.4" height="31.4"/>
		<path id="XMLID_2805_" class="st0" d="M32.7,13.9C34.5,4.5,43.4-1.6,52.4,0.4s14.9,11.1,13,20.4c-1.8,9.4-10.7,15.4-19.7,13.5
			S30.9,23.2,32.7,13.9z"/>
	</g>
	<text id="XMLID_1519_" transform="matrix(0.9647 0 0 1 30.7983 85.9781)" class="st1 st2">Name Surname</text>
</g>
</svg>
